  0
SECTION
  2
HEADER
  9
$ACADVER
  1
AC1015
  9
$ACADMAINTVER
 70
     6
  9
$DWGCODEPAGE
  3
ANSI_1252
  9
$INSBASE
 10
0.0
 20
0.0
 30
0.0
  9
$EXTMIN
 10
1.2826585642
 20
1.9242209016
 30
0.0
  9
$EXTMAX
 10
7.4411639745
 20
4.3716298112
 30
0.0
  9
$LIMMIN
 10
0.0
 20
0.0
  9
$LIMMAX
 10
12.0
 20
9.0
  9
$ORTHOMODE
 70
     0
  9
$REGENMODE
 70
     1
  9
$FILLMODE
 70
     1
  9
$QTEXTMODE
 70
     0
  9
$MIRRTEXT
 70
     1
  9
$LTSCALE
 40
1.0
  9
$ATTMODE
 70
     1
  9
$TEXTSIZE
 40
0.125
  9
$TRACEWID
 40
0.05
  9
$TEXTSTYLE
  7
Standard
  9
$CLAYER
  8
0
  9
$CELTYPE
  6
ByLayer
  9
$CECOLOR
 62
   256
  9
$CELTSCALE
 40
1.0
  9
$DISPSILH
 70
     0
  9
$DIMSCALE
 40
1.0
  9
$DIMASZ
 40
0.13
  9
$DIMEXO
 40
0.05
  9
$DIMDLI
 40
0.38
  9
$DIMRND
 40
0.0
  9
$DIMDLE
 40
0.0
  9
$DIMEXE
 40
0.125
  9
$DIMTP
 40
0.0
  9
$DIMTM
 40
0.0
  9
$DIMTXT
 40
0.125
  9
$DIMCEN
 40
0.09
  9
$DIMTSZ
 40
0.0
  9
$DIMTOL
 70
     0
  9
$DIMLIM
 70
     0
  9
$DIMTIH
 70
     1
  9
$DIMTOH
 70
     1
  9
$DIMSE1
 70
     0
  9
$DIMSE2
 70
     0
  9
$DIMTAD
 70
     0
  9
$DIMZIN
 70
     0
  9
$DIMBLK
  1

  9
$DIMASO
 70
     1
  9
$DIMSHO
 70
     1
  9
$DIMPOST
  1

  9
$DIMAPOST
  1

  9
$DIMALT
 70
     0
  9
$DIMALTD
 70
     2
  9
$DIMALTF
 40
25.4
  9
$DIMLFAC
 40
1.0
  9
$DIMTOFL
 70
     0
  9
$DIMTVP
 40
0.0
  9
$DIMTIX
 70
     0
  9
$DIMSOXD
 70
     0
  9
$DIMSAH
 70
     0
  9
$DIMBLK1
  1

  9
$DIMBLK2
  1

  9
$DIMSTYLE
  2
Standard
  9
$DIMCLRD
 70
     0
  9
$DIMCLRE
 70
     0
  9
$DIMCLRT
 70
     0
  9
$DIMTFAC
 40
1.0
  9
$DIMGAP
 40
0.06
  9
$DIMJUST
 70
     0
  9
$DIMSD1
 70
     0
  9
$DIMSD2
 70
     0
  9
$DIMTOLJ
 70
     1
  9
$DIMTZIN
 70
     0
  9
$DIMALTZ
 70
     0
  9
$DIMALTTZ
 70
     0
  9
$DIMUPT
 70
     0
  9
$DIMDEC
 70
     2
  9
$DIMTDEC
 70
     2
  9
$DIMALTU
 70
     2
  9
$DIMALTTD
 70
     2
  9
$DIMTXSTY
  7
Standard
  9
$DIMAUNIT
 70
     0
  9
$DIMADEC
 70
     2
  9
$DIMALTRND
 40
0.0
  9
$DIMAZIN
 70
     0
  9
$DIMDSEP
 70
    46
  9
$DIMATFIT
 70
     3
  9
$DIMFRAC
 70
     0
  9
$DIMLDRBLK
  1

  9
$DIMLUNIT
 70
     2
  9
$DIMLWD
 70
    -2
  9
$DIMLWE
 70
    -2
  9
$DIMTMOVE
 70
     0
  9
$LUNITS
 70
     2
  9
$LUPREC
 70
     2
  9
$SKETCHINC
 40
0.1
  9
$FILLETRAD
 40
0.5
  9
$AUNITS
 70
     0
  9
$AUPREC
 70
     2
  9
$MENU
  1
.
  9
$ELEVATION
 40
0.0
  9
$PELEVATION
 40
0.0
  9
$THICKNESS
 40
0.0
  9
$LIMCHECK
 70
     0
  9
$CHAMFERA
 40
0.0
  9
$CHAMFERB
 40
0.0
  9
$CHAMFERC
 40
0.0
  9
$CHAMFERD
 40
0.0
  9
$SKPOLY
 70
     0
  9
$TDCREATE
 40
2457426.555443484
  9
$TDUCREATE
 40
2457426.888776817
  9
$TDUPDATE
 40
2457426.555468264
  9
$TDUUPDATE
 40
2457426.888801597
  9
$TDINDWG
 40
0.0000000116
  9
$TDUSRTIMER
 40
0.0000000116
  9
$USRTIMER
 70
     1
  9
$ANGBASE
 50
0.0
  9
$ANGDIR
 70
     0
  9
$PDMODE
 70
     0
  9
$PDSIZE
 40
-1.0
  9
$PLINEWID
 40
0.0
  9
$SPLFRAME
 70
     0
  9
$SPLINETYPE
 70
     6
  9
$SPLINESEGS
 70
     8
  9
$HANDSEED
  5
116
  9
$SURFTAB1
 70
     6
  9
$SURFTAB2
 70
     6
  9
$SURFTYPE
 70
     6
  9
$SURFU
 70
     6
  9
$SURFV
 70
     6
  9
$UCSBASE
  2

  9
$UCSNAME
  2

  9
$UCSORG
 10
0.0
 20
0.0
 30
0.0
  9
$UCSXDIR
 10
1.0
 20
0.0
 30
0.0
  9
$UCSYDIR
 10
0.0
 20
1.0
 30
0.0
  9
$UCSORTHOREF
  2

  9
$UCSORTHOVIEW
 70
     0
  9
$UCSORGTOP
 10
0.0
 20
0.0
 30
0.0
  9
$UCSORGBOTTOM
 10
0.0
 20
0.0
 30
0.0
  9
$UCSORGLEFT
 10
0.0
 20
0.0
 30
0.0
  9
$UCSORGRIGHT
 10
0.0
 20
0.0
 30
0.0
  9
$UCSORGFRONT
 10
0.0
 20
0.0
 30
0.0
  9
$UCSORGBACK
 10
0.0
 20
0.0
 30
0.0
  9
$PUCSBASE
  2

  9
$PUCSNAME
  2

  9
$PUCSORG
 10
0.0
 20
0.0
 30
0.0
  9
$PUCSXDIR
 10
1.0
 20
0.0
 30
0.0
  9
$PUCSYDIR
 10
0.0
 20
1.0
 30
0.0
  9
$PUCSORTHOREF
  2

  9
$PUCSORTHOVIEW
 70
     0
  9
$PUCSORGTOP
 10
0.0
 20
0.0
 30
0.0
  9
$PUCSORGBOTTOM
 10
0.0
 20
0.0
 30
0.0
  9
$PUCSORGLEFT
 10
0.0
 20
0.0
 30
0.0
  9
$PUCSORGRIGHT
 10
0.0
 20
0.0
 30
0.0
  9
$PUCSORGFRONT
 10
0.0
 20
0.0
 30
0.0
  9
$PUCSORGBACK
 10
0.0
 20
0.0
 30
0.0
  9
$USERI1
 70
     0
  9
$USERI2
 70
     0
  9
$USERI3
 70
     0
  9
$USERI4
 70
     0
  9
$USERI5
 70
     0
  9
$USERR1
 40
0.0
  9
$USERR2
 40
0.0
  9
$USERR3
 40
0.0
  9
$USERR4
 40
0.0
  9
$USERR5
 40
0.0
  9
$WORLDVIEW
 70
     1
  9
$SHADEDGE
 70
     3
  9
$SHADEDIF
 70
    70
  9
$TILEMODE
 70
     1
  9
$MAXACTVP
 70
    64
  9
$PINSBASE
 10
0.0
 20
0.0
 30
0.0
  9
$PLIMCHECK
 70
     0
  9
$PEXTMIN
 10
1.0000000000E+20
 20
1.0000000000E+20
 30
1.0000000000E+20
  9
$PEXTMAX
 10
-1.0000000000E+20
 20
-1.0000000000E+20
 30
-1.0000000000E+20
  9
$PLIMMIN
 10
0.0
 20
0.0
  9
$PLIMMAX
 10
12.0
 20
9.0
  9
$UNITMODE
 70
     0
  9
$VISRETAIN
 70
     1
  9
$PLINEGEN
 70
     0
  9
$PSLTSCALE
 70
     1
  9
$TREEDEPTH
 70
  3020
  9
$CMLSTYLE
  2
Standard
  9
$CMLJUST
 70
     0
  9
$CMLSCALE
 40
1.0
  9
$PROXYGRAPHICS
 70
     1
  9
$MEASUREMENT
 70
     0
  9
$CELWEIGHT
370
    -1
  9
$ENDCAPS
280
     0
  9
$JOINSTYLE
280
     0
  9
$LWDISPLAY
290
     1
  9
$INSUNITS
 70
     1
  9
$HYPERLINKBASE
  1

  9
$STYLESHEET
  1

  9
$XEDIT
290
     1
  9
$CEPSNTYPE
380
     0
  9
$PSTYLEMODE
290
     1
  9
$FINGERPRINTGUID
  2
{AD1205E1-15A7-4239-8ED0-C7ECD268A3BE}
  9
$VERSIONGUID
  2
{FAEB1C32-E019-11D5-929B-00C0DF256EC4}
  9
$EXTNAMES
290
     1
  9
$PSVPSCALE
 40
0.0
  9
$OLESTARTUP
290
     0
  0
ENDSEC
  0
SECTION
  2
CLASSES
  0
CLASS
  1
ACDBDICTIONARYWDFLT
  2
AcDbDictionaryWithDefault
  3
ObjectDBX Classes
 90
        0
280
     0
281
     0
  0
CLASS
  1
VISUALSTYLE
  2
AcDbVisualStyle
  3
ObjectDBX Classes
 90
     4095
280
     0
281
     0
  0
CLASS
  1
MATERIAL
  2
AcDbMaterial
  3
ObjectDBX Classes
 90
     1153
280
     0
281
     0
  0
CLASS
  1
SCALE
  2
AcDbScale
  3
ObjectDBX Classes
 90
     1153
280
     0
281
     0
  0
CLASS
  1
TABLESTYLE
  2
AcDbTableStyle
  3
ObjectDBX Classes
 90
     4095
280
     0
281
     0
  0
CLASS
  1
MLEADERSTYLE
  2
AcDbMLeaderStyle
  3
ACDB_MLEADERSTYLE_CLASS
 90
     4095
280
     0
281
     0
  0
CLASS
  1
SUN
  2
AcDbSun
  3
SCENEOE
 90
     1153
280
     0
281
     0
  0
CLASS
  1
ACDBPLACEHOLDER
  2
AcDbPlaceHolder
  3
ObjectDBX Classes
 90
        0
280
     0
281
     0
  0
CLASS
  1
LAYOUT
  2
AcDbLayout
  3
ObjectDBX Classes
 90
        0
280
     0
281
     0
  0
ENDSEC
  0
SECTION
  2
TABLES
  0
TABLE
  2
VPORT
  5
8
330
0
100
AcDbSymbolTable
 70
     1
  0
VPORT
  5
29
330
8
100
AcDbSymbolTableRecord
100
AcDbViewportTableRecord
  2
*Active
 70
     0
 10
0.0
 20
0.0
 11
1.0
 21
1.0
 12
4.3619112693
 22
3.1479253564
 13
0.0
 23
0.0
 14
0.5
 24
0.5
 15
0.5
 25
0.5
 16
0.0
 26
0.0
 36
1.0
 17
0.0
 27
0.0
 37
0.0
 40
2.4963570877
 41
2.5163369252
 42
50.0
 43
0.0
 44
0.0
 50
0.0
 51
0.0
 71
     0
 72
   100
 73
     1
 74
     3
 75
     0
 76
     0
 77
     0
 78
     0
281
     0
 65
     1
110
0.0
120
0.0
130
0.0
111
1.0
121
0.0
131
0.0
112
0.0
122
1.0
132
0.0
 79
     0
146
0.0
  0
ENDTAB
  0
TABLE
  2
LTYPE
  5
5
330
0
100
AcDbSymbolTable
 70
     6
  0
LTYPE
  5
14
330
5
100
AcDbSymbolTableRecord
100
AcDbLinetypeTableRecord
  2
ByBlock
 70
     0
  3

 72
    65
 73
     0
 40
0.0
  0
LTYPE
  5
15
330
5
100
AcDbSymbolTableRecord
100
AcDbLinetypeTableRecord
  2
ByLayer
 70
     0
  3

 72
    65
 73
     0
 40
0.0
  0
LTYPE
  5
16
330
5
100
AcDbSymbolTableRecord
100
AcDbLinetypeTableRecord
  2
Continuous
 70
     0
  3
Solid line
 72
    65
 73
     0
 40
0.0
  0
LTYPE
  5
6E
330
5
100
AcDbSymbolTableRecord
100
AcDbLinetypeTableRecord
  2
HIDDEN
 70
     0
  3
Hidden __ __ __ __ __ __ __ __ __ __ __ __ __ __
 72
    65
 73
     2
 40
0.075
 49
0.05
 74
     0
 49
-0.025
 74
     0
  0
LTYPE
  5
6F
330
5
100
AcDbSymbolTableRecord
100
AcDbLinetypeTableRecord
  2
PHANTOM
 70
     0
  3
Phantom ______  __  __  ______  __  __  ______
 72
    65
 73
     6
 40
0.5
 49
0.25
 74
     0
 49
-0.05
 74
     0
 49
0.05
 74
     0
 49
-0.05
 74
     0
 49
0.05
 74
     0
 49
-0.05
 74
     0
  0
LTYPE
  5
70
330
5
100
AcDbSymbolTableRecord
100
AcDbLinetypeTableRecord
  2
CENTER
 70
     0
  3
Center ____ _ ____ _ ____ _ ____ _ ____ _ ____
 72
    65
 73
     4
 40
0.4
 49
0.25
 74
     0
 49
-0.05
 74
     0
 49
0.05
 74
     0
 49
-0.05
 74
     0
  0
LTYPE
  5
71
330
5
100
AcDbSymbolTableRecord
100
AcDbLinetypeTableRecord
  2
CENTERX2
 70
     0
  3
Center (2x) ________  __  ________  __  _____
 72
    65
 73
     4
 40
0.8
 49
0.5
 74
     0
 49
-0.1
 74
     0
 49
0.1
 74
     0
 49
-0.1
 74
     0
  0
LTYPE
  5
72
330
5
100
AcDbSymbolTableRecord
100
AcDbLinetypeTableRecord
  2
DOT2
 70
     0
  3
Dot (.5x) ........................................
 72
    65
 73
     2
 40
0.025
 49
0.0
 74
     0
 49
-0.025
 74
     0
  0
ENDTAB
  0
TABLE
  2
LAYER
  5
2
330
0
100
AcDbSymbolTable
 70
     1
  0
LAYER
  5
10
330
2
100
AcDbSymbolTableRecord
100
AcDbLayerTableRecord
  2
0
 70
     0
 62
     7
  6
Continuous
370
    -3
390
F
  0
ENDTAB
  0
TABLE
  2
STYLE
  5
3
330
0
100
AcDbSymbolTable
 70
     1
  0
STYLE
  5
11
330
3
100
AcDbSymbolTableRecord
100
AcDbTextStyleTableRecord
  2
Standard
 70
     0
 40
0.0
 41
1.0
 50
0.0
 71
     0
 42
0.125
  3
txt
  4

  0
ENDTAB
  0
TABLE
  2
VIEW
  5
6
330
0
100
AcDbSymbolTable
 70
     0
  0
ENDTAB
  0
TABLE
  2
UCS
  5
7
330
0
100
AcDbSymbolTable
 70
     0
  0
ENDTAB
  0
TABLE
  2
APPID
  5
9
330
0
100
AcDbSymbolTable
 70
     1
  0
APPID
  5
12
330
9
100
AcDbSymbolTableRecord
100
AcDbRegAppTableRecord
  2
ACAD
 70
     0
  0
ENDTAB
  0
TABLE
  2
DIMSTYLE
  5
A
330
0
100
AcDbSymbolTable
 70
     1
100
AcDbDimStyleTable
  0
DIMSTYLE
105
27
330
A
100
AcDbSymbolTableRecord
100
AcDbDimStyleTableRecord
  2
Standard
 70
     0
178
     0
340
11
  0
ENDTAB
  0
TABLE
  2
BLOCK_RECORD
  5
1
330
0
100
AcDbSymbolTable
 70
     1
  0
BLOCK_RECORD
  5
1F
330
1
100
AcDbSymbolTableRecord
100
AcDbBlockTableRecord
  2
*Model_Space
340
22
  0
BLOCK_RECORD
  5
1B
330
1
100
AcDbSymbolTableRecord
100
AcDbBlockTableRecord
  2
*Paper_Space
340
1E
  0
BLOCK_RECORD
  5
23
330
1
100
AcDbSymbolTableRecord
100
AcDbBlockTableRecord
  2
*Paper_Space0
340
26
  0
ENDTAB
  0
ENDSEC
  0
SECTION
  2
BLOCKS
  0
BLOCK
  5
20
330
1F
100
AcDbEntity
  8
0
100
AcDbBlockBegin
  2
*Model_Space
 70
     0
 10
0.0
 20
0.0
 30
0.0
  3
*Model_Space
  1

  0
ENDBLK
  5
21
330
1F
100
AcDbEntity
  8
0
100
AcDbBlockEnd
  0
BLOCK
  5
1C
330
1B
100
AcDbEntity
 67
     1
  8
0
100
AcDbBlockBegin
  2
*Paper_Space
 70
     0
 10
0.0
 20
0.0
 30
0.0
  3
*Paper_Space
  1

  0
ENDBLK
  5
1D
330
1B
100
AcDbEntity
 67
     1
  8
0
100
AcDbBlockEnd
  0
BLOCK
  5
24
330
23
100
AcDbEntity
  8
0
100
AcDbBlockBegin
  2
*Paper_Space0
 70
     0
 10
0.0
 20
0.0
 30
0.0
  3
*Paper_Space0
  1

  0
ENDBLK
  5
25
330
23
100
AcDbEntity
  8
0
100
AcDbBlockEnd
  0
ENDSEC
  0
SECTION
  2
ENTITIES
  0
LINE
  5
73
330
1F
100
AcDbEntity
  8
0
  6
Continuous
 62
     7
370
    15
100
AcDbLine
 10
2.7899476206
 20
2.8707026052
 30
0.0
 11
2.7899476206
 21
2.2244212595
 31
0.0
  0
LINE
  5
74
330
1F
100
AcDbEntity
  8
0
  6
Continuous
 62
     7
370
    15
100
AcDbLine
 10
2.7899476206
 20
2.8707026052
 30
0.0
 11
2.8274476206
 21
2.8707026052
 31
0.0
  0
LINE
  5
75
330
1F
100
AcDbEntity
  8
0
  6
Continuous
 62
     7
370
    15
100
AcDbLine
 10
2.8274476206
 20
2.8707026052
 30
0.0
 11
2.8274476206
 21
2.2244212595
 31
0.0
  0
LINE
  5
76
330
1F
100
AcDbEntity
  8
0
  6
Continuous
 62
     7
370
    15
100
AcDbLine
 10
2.7899476206
 20
2.2244212595
 30
0.0
 11
2.8274476206
 21
2.2244212595
 31
0.0
  0
LINE
  5
77
330
1F
100
AcDbEntity
  8
0
  6
Continuous
 62
     7
370
    15
100
AcDbLine
 10
2.6516686378
 20
2.8707026052
 30
0.0
 11
2.6516686378
 21
2.2244212595
 31
0.0
  0
LINE
  5
78
330
1F
100
AcDbEntity
  8
0
  6
Continuous
 62
     7
370
    15
100
AcDbLine
 10
2.6516686378
 20
2.8707026052
 30
0.0
 11
2.6891686378
 21
2.8707026052
 31
0.0
  0
LINE
  5
79
330
1F
100
AcDbEntity
  8
0
  6
Continuous
 62
     7
370
    15
100
AcDbLine
 10
2.6891686378
 20
2.8707026052
 30
0.0
 11
2.6891686378
 21
2.2244212595
 31
0.0
  0
LINE
  5
7A
330
1F
100
AcDbEntity
  8
0
  6
Continuous
 62
     7
370
    15
100
AcDbLine
 10
2.6516686378
 20
2.2244212595
 30
0.0
 11
2.6891686378
 21
2.2244212595
 31
0.0
  0
LINE
  5
7B
330
1F
100
AcDbEntity
  8
0
  6
Continuous
 62
     7
370
    15
100
AcDbLine
 10
2.513389655
 20
2.8707026052
 30
0.0
 11
2.513389655
 21
2.2244212595
 31
0.0
  0
LINE
  5
7C
330
1F
100
AcDbEntity
  8
0
  6
Continuous
 62
     7
370
    15
100
AcDbLine
 10
2.513389655
 20
2.8707026052
 30
0.0
 11
2.550889655
 21
2.8707026052
 31
0.0
  0
LINE
  5
7D
330
1F
100
AcDbEntity
  8
0
  6
Continuous
 62
     7
370
    15
100
AcDbLine
 10
2.550889655
 20
2.8707026052
 30
0.0
 11
2.550889655
 21
2.2244212595
 31
0.0
  0
LINE
  5
7E
330
1F
100
AcDbEntity
  8
0
  6
Continuous
 62
     7
370
    15
100
AcDbLine
 10
2.513389655
 20
2.2244212595
 30
0.0
 11
2.550889655
 21
2.2244212595
 31
0.0
  0
CIRCLE
  5
7F
330
1F
100
AcDbEntity
  8
0
  6
Continuous
 62
     7
370
    15
100
AcDbCircle
 10
3.5693572371
 20
2.2084768691
 30
0.0
 40
0.09375
  0
CIRCLE
  5
80
330
1F
100
AcDbEntity
  8
0
  6
Continuous
 62
     7
370
    15
100
AcDbCircle
 10
5.107267889
 20
2.3877819509
 30
0.0
 40
0.09375
  0
CIRCLE
  5
81
330
1F
100
AcDbEntity
  8
0
  6
Continuous
 62
     7
370
    15
100
AcDbCircle
 10
2.0784415147
 20
2.5425273192
 30
0.0
 40
0.0937500000000004
  0
LINE
  5
82
330
1F
100
AcDbEntity
  8
0
  6
Continuous
 62
     7
370
    15
100
AcDbLine
 10
2.3751106721
 20
2.8707026052
 30
0.0
 11
2.4126106721
 21
2.8707026052
 31
0.0
  0
LINE
  5
83
330
1F
100
AcDbEntity
  8
0
  6
Continuous
 62
     7
370
    15
100
AcDbLine
 10
2.4126106721
 20
2.8707026052
 30
0.0
 11
2.4126106721
 21
2.2244212595
 31
0.0
  0
LINE
  5
84
330
1F
100
AcDbEntity
  8
0
  6
Continuous
 62
     7
370
    15
100
AcDbLine
 10
2.3751106721
 20
2.2244212595
 30
0.0
 11
2.4126106721
 21
2.2244212595
 31
0.0
  0
LINE
  5
85
330
1F
100
AcDbEntity
  8
0
  6
Continuous
 62
     7
370
    15
100
AcDbLine
 10
2.3751106721
 20
2.8707026052
 30
0.0
 11
2.3751106721
 21
2.2244212595
 31
0.0
  0
LINE
  5
86
330
1F
100
AcDbEntity
  8
0
  6
Continuous
 62
     7
370
    15
100
AcDbLine
 10
6.0967076609
 20
2.3754838915
 30
0.0
 11
6.1342076609
 21
2.3754838915
 31
0.0
  0
LINE
  5
87
330
1F
100
AcDbEntity
  8
0
  6
Continuous
 62
     7
370
    15
100
AcDbLine
 10
6.1342076609
 20
2.3754838915
 30
0.0
 11
6.1342076609
 21
2.1254838915
 31
0.0
  0
LINE
  5
88
330
1F
100
AcDbEntity
  8
0
  6
Continuous
 62
     7
370
    15
100
AcDbLine
 10
6.0967076609
 20
2.1254838915
 30
0.0
 11
6.1342076609
 21
2.1254838915
 31
0.0
  0
LINE
  5
89
330
1F
100
AcDbEntity
  8
0
  6
Continuous
 62
     7
370
    15
100
AcDbLine
 10
6.0967076609
 20
2.3754838915
 30
0.0
 11
6.0967076609
 21
2.1254838915
 31
0.0
  0
LINE
  5
8A
330
1F
100
AcDbEntity
  8
0
  6
Continuous
 62
     7
370
    15
100
AcDbLine
 10
6.2353307133
 20
2.3754838915
 30
0.0
 11
6.2728307133
 21
2.3754838915
 31
0.0
  0
LINE
  5
8B
330
1F
100
AcDbEntity
  8
0
  6
Continuous
 62
     7
370
    15
100
AcDbLine
 10
6.2728307133
 20
2.3754838915
 30
0.0
 11
6.2728307133
 21
2.1254838915
 31
0.0
  0
LINE
  5
8C
330
1F
100
AcDbEntity
  8
0
  6
Continuous
 62
     7
370
    15
100
AcDbLine
 10
6.2353307133
 20
2.1254838915
 30
0.0
 11
6.2728307133
 21
2.1254838915
 31
0.0
  0
LINE
  5
8D
330
1F
100
AcDbEntity
  8
0
  6
Continuous
 62
     7
370
    15
100
AcDbLine
 10
6.2353307133
 20
2.3754838915
 30
0.0
 11
6.2353307133
 21
2.1254838915
 31
0.0
  0
LINE
  5
8E
330
1F
100
AcDbEntity
  8
0
  6
Continuous
 62
     7
370
    15
100
AcDbLine
 10
6.3739537656
 20
2.3754838915
 30
0.0
 11
6.4114537656
 21
2.3754838915
 31
0.0
  0
LINE
  5
8F
330
1F
100
AcDbEntity
  8
0
  6
Continuous
 62
     7
370
    15
100
AcDbLine
 10
6.4114537656
 20
2.3754838915
 30
0.0
 11
6.4114537656
 21
2.1254838915
 31
0.0
  0
LINE
  5
90
330
1F
100
AcDbEntity
  8
0
  6
Continuous
 62
     7
370
    15
100
AcDbLine
 10
6.3739537656
 20
2.1254838915
 30
0.0
 11
6.4114537656
 21
2.1254838915
 31
0.0
  0
LINE
  5
91
330
1F
100
AcDbEntity
  8
0
  6
Continuous
 62
     7
370
    15
100
AcDbLine
 10
6.3739537656
 20
2.3754838915
 30
0.0
 11
6.3739537656
 21
2.1254838915
 31
0.0
  0
LINE
  5
92
330
1F
100
AcDbEntity
  8
0
  6
Continuous
 62
     7
370
    15
100
AcDbLine
 10
6.5125768179
 20
2.3754838915
 30
0.0
 11
6.5500768179
 21
2.3754838915
 31
0.0
  0
LINE
  5
93
330
1F
100
AcDbEntity
  8
0
  6
Continuous
 62
     7
370
    15
100
AcDbLine
 10
6.5500768179
 20
2.3754838915
 30
0.0
 11
6.5500768179
 21
2.1254838915
 31
0.0
  0
LINE
  5
94
330
1F
100
AcDbEntity
  8
0
  6
Continuous
 62
     7
370
    15
100
AcDbLine
 10
6.5125768179
 20
2.1254838915
 30
0.0
 11
6.5500768179
 21
2.1254838915
 31
0.0
  0
LINE
  5
95
330
1F
100
AcDbEntity
  8
0
  6
Continuous
 62
     7
370
    15
100
AcDbLine
 10
6.5125768179
 20
2.3754838915
 30
0.0
 11
6.5125768179
 21
2.1254838915
 31
0.0
  0
LINE
  5
96
330
1F
100
AcDbEntity
  8
0
  6
Continuous
 62
     7
370
    15
100
AcDbLine
 10
6.6511998703
 20
2.3754838915
 30
0.0
 11
6.6886998703
 21
2.3754838915
 31
0.0
  0
LINE
  5
97
330
1F
100
AcDbEntity
  8
0
  6
Continuous
 62
     7
370
    15
100
AcDbLine
 10
6.6886998703
 20
2.3754838915
 30
0.0
 11
6.6886998703
 21
2.1254838915
 31
0.0
  0
LINE
  5
98
330
1F
100
AcDbEntity
  8
0
  6
Continuous
 62
     7
370
    15
100
AcDbLine
 10
6.6511998703
 20
2.1254838915
 30
0.0
 11
6.6886998703
 21
2.1254838915
 31
0.0
  0
LINE
  5
99
330
1F
100
AcDbEntity
  8
0
  6
Continuous
 62
     7
370
    15
100
AcDbLine
 10
6.6511998703
 20
2.3754838915
 30
0.0
 11
6.6511998703
 21
2.1254838915
 31
0.0
  0
LINE
  5
9A
330
1F
100
AcDbEntity
  8
0
  6
Continuous
 62
     7
370
    15
100
AcDbLine
 10
6.7898229226
 20
2.3754838915
 30
0.0
 11
6.8273229226
 21
2.3754838915
 31
0.0
  0
LINE
  5
9B
330
1F
100
AcDbEntity
  8
0
  6
Continuous
 62
     7
370
    15
100
AcDbLine
 10
6.8273229226
 20
2.3754838915
 30
0.0
 11
6.8273229226
 21
2.1254838915
 31
0.0
  0
LINE
  5
9C
330
1F
100
AcDbEntity
  8
0
  6
Continuous
 62
     7
370
    15
100
AcDbLine
 10
6.7898229226
 20
2.1254838915
 30
0.0
 11
6.8273229226
 21
2.1254838915
 31
0.0
  0
LINE
  5
9D
330
1F
100
AcDbEntity
  8
0
  6
Continuous
 62
     7
370
    15
100
AcDbLine
 10
6.7898229226
 20
2.3754838915
 30
0.0
 11
6.7898229226
 21
2.1254838915
 31
0.0
  0
LINE
  5
9E
330
1F
100
AcDbEntity
  8
0
  6
Continuous
 62
     7
370
    15
100
AcDbLine
 10
6.9284459749
 20
2.3754838915
 30
0.0
 11
6.9659459749
 21
2.3754838915
 31
0.0
  0
LINE
  5
9F
330
1F
100
AcDbEntity
  8
0
  6
Continuous
 62
     7
370
    15
100
AcDbLine
 10
6.9659459749
 20
2.3754838915
 30
0.0
 11
6.9659459749
 21
2.1254838915
 31
0.0
  0
LINE
  5
A0
330
1F
100
AcDbEntity
  8
0
  6
Continuous
 62
     7
370
    15
100
AcDbLine
 10
6.9284459749
 20
2.1254838915
 30
0.0
 11
6.9659459749
 21
2.1254838915
 31
0.0
  0
LINE
  5
A1
330
1F
100
AcDbEntity
  8
0
  6
Continuous
 62
     7
370
    15
100
AcDbLine
 10
6.9284459749
 20
2.3754838915
 30
0.0
 11
6.9284459749
 21
2.1254838915
 31
0.0
  0
LINE
  5
A2
330
1F
100
AcDbEntity
  8
0
  6
Continuous
 62
     7
370
    15
100
AcDbLine
 10
6.8648229226
 20
2.3129838915
 30
0.0
 11
6.9023229226
 21
2.3129838915
 31
0.0
  0
LINE
  5
A3
330
1F
100
AcDbEntity
  8
0
  6
Continuous
 62
     7
370
    15
100
AcDbLine
 10
6.8648229226
 20
2.3129838915
 30
0.0
 11
6.8648229226
 21
2.4178236781
 31
0.0
  0
SPLINE
  5
A4
330
1F
100
AcDbEntity
  8
0
  6
Continuous
 62
     7
370
    15
100
AcDbSpline
210
0.0
220
0.0
230
1.0
 70
     8
 71
     3
 72
     8
 73
     4
 74
     0
 42
0.000000001
 43
0.00000001
 40
0.4899009347934928
 40
0.4899009347934928
 40
0.4899009347934928
 40
0.4899009347934928
 40
0.4971544936996929
 40
0.4971544936996929
 40
0.4971544936996929
 40
0.4971544936996929
 10
6.864822923094635
 20
2.41782367812232
 30
0.0
 10
6.831083001522878
 20
2.42485984453395
 30
0.0
 10
6.797445614172891
 20
2.433730765320374
 30
0.0
 10
6.763699871016135
 20
2.443181229434924
 30
0.0
  0
LINE
  5
A5
330
1F
100
AcDbEntity
  8
0
  6
Continuous
 62
     7
370
    15
100
AcDbLine
 10
6.7636998703
 20
2.3129838915
 30
0.0
 11
6.7636998703
 21
2.4431812294
 31
0.0
  0
LINE
  5
A6
330
1F
100
AcDbEntity
  8
0
  6
Continuous
 62
     7
370
    15
100
AcDbLine
 10
6.7261998703
 20
2.3129838915
 30
0.0
 11
6.7636998703
 21
2.3129838915
 31
0.0
  0
LINE
  5
A7
330
1F
100
AcDbEntity
  8
0
  6
Continuous
 62
     7
370
    15
100
AcDbLine
 10
6.7261998703
 20
2.3129838915
 30
0.0
 11
6.7261998703
 21
2.4538419673
 31
0.0
  0
SPLINE
  5
A8
330
1F
100
AcDbEntity
  8
0
  6
Continuous
 62
     7
370
    15
100
AcDbSpline
210
0.0
220
0.0
230
1.0
 70
     8
 71
     3
 72
     9
 73
     5
 74
     0
 42
0.000000001
 43
0.00000001
 40
0.4998373850486809
 40
0.4998373850486809
 40
0.4998373850486809
 40
0.4998373850486809
 40
0.5015207102440682
 40
0.5070213534388001
 40
0.5070213534388001
 40
0.5070213534388001
 40
0.5070213534388001
 10
6.726199870267424
 20
2.453841967253939
 30
0.0
 10
6.71834323686009
 20
2.456094766121843
 30
0.0
 10
6.684770455970378
 20
2.465735586499975
 30
0.0
 10
6.650966869114981
 20
2.475203748124303
 30
0.0
 10
6.625076817161318
 20
2.482521867483141
 30
0.0
  0
LINE
  5
A9
330
1F
100
AcDbEntity
  8
0
  6
Continuous
 62
     7
370
    15
100
AcDbLine
 10
6.6250768179
 20
2.3129838915
 30
0.0
 11
6.6250768172
 21
2.4825218675
 31
0.0
  0
LINE
  5
AA
330
1F
100
AcDbEntity
  8
0
  6
Continuous
 62
     7
370
    15
100
AcDbLine
 10
6.5875768179
 20
2.3129838915
 30
0.0
 11
6.6250768179
 21
2.3129838915
 31
0.0
  0
LINE
  5
AB
330
1F
100
AcDbEntity
  8
0
  6
Continuous
 62
     7
370
    15
100
AcDbLine
 10
6.5875768179
 20
2.3129838915
 30
0.0
 11
6.5875768179
 21
2.4931913723
 31
0.0
  0
SPLINE
  5
AC
330
1F
100
AcDbEntity
  8
0
  6
Continuous
 62
     7
370
    15
100
AcDbSpline
210
0.0
220
0.0
230
1.0
 70
     8
 71
     3
 72
     8
 73
     4
 74
     0
 42
0.000000001
 43
0.00000001
 40
0.5096777882244616
 40
0.5096777882244616
 40
0.5096777882244616
 40
0.5096777882244616
 40
0.5168861092701316
 40
0.5168861092701316
 40
0.5168861092701316
 40
0.5168861092701316
 10
6.587576817788298
 20
2.493191372276732
 30
0.0
 10
6.553679200167895
 20
2.502919992647771
 30
0.0
 10
6.519875424797863
 20
2.512907024833718
 30
0.0
 10
6.486453764914702
 20
2.523534437385906
 30
0.0
  0
LINE
  5
AD
330
1F
100
AcDbEntity
  8
0
  6
Continuous
 62
     7
370
    15
100
AcDbLine
 10
6.4864537656
 20
2.3129838915
 30
0.0
 11
6.4864537649
 21
2.5235344374
 31
0.0
  0
LINE
  5
AE
330
1F
100
AcDbEntity
  8
0
  6
Continuous
 62
     7
370
    15
100
AcDbLine
 10
6.4489537656
 20
2.3129838915
 30
0.0
 11
6.4864537656
 21
2.3129838915
 31
0.0
  0
LINE
  5
AF
330
1F
100
AcDbEntity
  8
0
  6
Continuous
 62
     7
370
    15
100
AcDbLine
 10
6.4489537656
 20
2.3129838915
 30
0.0
 11
6.4489537656
 21
2.5358065637
 31
0.0
  0
SPLINE
  5
B0
330
1F
100
AcDbEntity
  8
0
  6
Continuous
 62
     7
370
    15
100
AcDbSpline
210
0.0
220
0.0
230
1.0
 70
     8
 71
     3
 72
     8
 73
     4
 74
     0
 42
0.000000001
 43
0.00000001
 40
0.5195948230294648
 40
0.5195948230294648
 40
0.5195948230294648
 40
0.5195948230294648
 40
0.5270752987205578
 40
0.5270752987205578
 40
0.5270752987205578
 40
0.5270752987205578
 10
6.448953765227907
 20
2.535806563683343
 30
0.0
 10
6.414610515315041
 20
2.547390644163985
 30
0.0
 10
6.380795440017723
 20
2.559818951464826
 30
0.0
 10
6.347830712682754
 20
2.573518372549259
 30
0.0
  0
LINE
  5
B1
330
1F
100
AcDbEntity
  8
0
  6
Continuous
 62
     7
370
    15
100
AcDbLine
 10
6.3478307133
 20
2.3129838915
 30
0.0
 11
6.3478307127
 21
2.5735183725
 31
0.0
  0
LINE
  5
B2
330
1F
100
AcDbEntity
  8
0
  6
Continuous
 62
     7
370
    15
100
AcDbLine
 10
6.3103307133
 20
2.3129838915
 30
0.0
 11
6.3478307133
 21
2.3129838915
 31
0.0
  0
LINE
  5
B3
330
1F
100
AcDbEntity
  8
0
  6
Continuous
 62
     7
370
    15
100
AcDbLine
 10
6.3103307133
 20
2.3129838915
 30
0.0
 11
6.3103307133
 21
2.5898495994
 31
0.0
  0
SPLINE
  5
B4
330
1F
100
AcDbEntity
  8
0
  6
Continuous
 62
     7
370
    15
100
AcDbSpline
210
0.0
220
0.0
230
1.0
 70
     8
 71
     3
 72
     8
 73
     4
 74
     0
 42
0.000000001
 43
0.00000001
 40
0.5299415448995373
 40
0.5299415448995373
 40
0.5299415448995373
 40
0.5299415448995373
 40
0.5380535529094341
 40
0.5380535529094341
 40
0.5380535529094341
 40
0.5380535529094341
 10
6.310330712859681
 20
2.589849599407644
 30
0.0
 10
6.275340920806751
 20
2.605829871560913
 30
0.0
 10
6.241496285640299
 20
2.623497293959288
 30
0.0
 10
6.209207660938066
 20
2.643396256875718
 30
0.0
  0
LINE
  5
B5
330
1F
100
AcDbEntity
  8
0
  6
Continuous
 62
     7
370
    15
100
AcDbLine
 10
6.2092076609
 20
2.3129838915
 30
0.0
 11
6.2092076609
 21
2.6433962569
 31
0.0
  0
LINE
  5
B6
330
1F
100
AcDbEntity
  8
0
  6
Continuous
 62
     7
370
    15
100
AcDbLine
 10
6.1717076609
 20
2.3129838915
 30
0.0
 11
6.2092076609
 21
2.3129838915
 31
0.0
  0
LINE
  5
B7
330
1F
100
AcDbEntity
  8
0
  6
Continuous
 62
     7
370
    15
100
AcDbLine
 10
6.1717076609
 20
2.3129838915
 30
0.0
 11
6.1717076609
 21
2.6680487346
 31
0.0
  0
SPLINE
  5
B8
330
1F
100
AcDbEntity
  8
0
  6
Continuous
 62
     7
370
    15
100
AcDbSpline
210
0.0
220
0.0
230
1.0
 70
     8
 71
     3
 72
     9
 73
     5
 74
     0
 42
0.000000001
 43
0.00000001
 40
0.5412570658983079
 40
0.5412570658983079
 40
0.5412570658983079
 40
0.5412570658983079
 40
0.5426017641067427
 40
0.5506909444207613
 40
0.5506909444207613
 40
0.5506909444207613
 40
0.5506909444207613
 10
6.171707660965184
 20
2.668048734624122
 30
0.0
 10
6.166569635461997
 20
2.671653552996689
 30
0.0
 10
6.130854494654765
 20
2.697415190986319
 30
0.0
 10
6.097555339486935
 20
2.726607700418495
 30
0.0
 10
6.070584608607708
 20
2.753663121962563
 30
0.0
  0
LINE
  5
B9
330
1F
100
AcDbEntity
  8
0
  6
Continuous
 62
     7
370
    15
100
AcDbLine
 10
6.0705846086
 20
2.3129838915
 30
0.0
 11
6.0705846086
 21
2.753663122
 31
0.0
  0
LINE
  5
BA
330
1F
100
AcDbEntity
  8
0
  6
Continuous
 62
     7
370
    15
100
AcDbLine
 10
6.0330846086
 20
2.3129838915
 30
0.0
 11
6.0705846086
 21
2.3129838915
 31
0.0
  0
LINE
  5
BB
330
1F
100
AcDbEntity
  8
0
  6
Continuous
 62
     7
370
    15
100
AcDbLine
 10
6.0330846086
 20
2.3129838915
 30
0.0
 11
6.0330846086
 21
2.7936657121
 31
0.0
  0
SPLINE
  5
BC
330
1F
100
AcDbEntity
  8
0
  6
Continuous
 62
     7
370
    15
100
AcDbSpline
210
0.0
220
0.0
230
1.0
 70
     8
 71
     3
 72
    14
 73
    10
 74
     0
 42
0.000000001
 43
0.00000001
 40
0.5545456391373497
 40
0.5545456391373497
 40
0.5545456391373497
 40
0.5545456391373497
 40
0.5816347708162388
 40
0.6305351375049648
 40
0.6891450123500188
 40
0.7508124840026232
 40
0.8148209581647393
 40
0.8450223606215583
 40
0.8690312842581913
 40
0.8690312842581913
 40
0.8690312842581913
 40
0.8690312842581913
 10
6.033084609376565
 20
2.793665712051416
 30
0.0
 10
5.947666002090827
 20
2.890349834609841
 30
0.0
 10
5.754906477420199
 20
3.217763566663973
 30
0.0
 10
5.54455107322262
 20
3.815994609189806
 30
0.0
 10
4.90305678115411
 20
4.418386024437143
 30
0.0
 10
3.935267260552863
 20
4.376683510306054
 30
0.0
 10
3.335294850297083
 20
3.89337654954118
 30
0.0
 10
2.959943241973639
 20
3.480162897473276
 30
0.0
 10
2.82653628225404
 20
3.242910303580202
 30
0.0
 10
2.75244762060994
 20
3.157371580347537
 30
0.0
  0
LINE
  5
BD
330
1F
100
AcDbEntity
  8
0
  6
Continuous
 62
     7
370
    15
100
AcDbLine
 10
2.7524476206
 20
3.1573715803
 30
0.0
 11
2.7524476206
 21
2.6572126021
 31
0.0
  0
LINE
  5
BE
330
1F
100
AcDbEntity
  8
0
  6
Continuous
 62
     7
370
    15
100
AcDbLine
 10
2.7149476206
 20
2.6572126021
 30
0.0
 11
2.7524476206
 21
2.6572126021
 31
0.0
  0
LINE
  5
BF
330
1F
100
AcDbEntity
  8
0
  6
Continuous
 62
     7
370
    15
100
AcDbLine
 10
2.7149476206
 20
3.1172484184
 30
0.0
 11
2.7149476206
 21
2.6572126021
 31
0.0
  0
SPLINE
  5
C0
330
1F
100
AcDbEntity
  8
0
  6
Continuous
 62
     7
370
    15
100
AcDbSpline
210
0.0
220
0.0
230
1.0
 70
     8
 71
     3
 72
     9
 73
     5
 74
     0
 42
0.000000001
 43
0.00000001
 40
0.8729424049038529
 40
0.8729424049038529
 40
0.8729424049038529
 40
0.8729424049038529
 40
0.8780855668402354
 40
0.8821425740719051
 40
0.8821425740719051
 40
0.8821425740719051
 40
0.8821425740719051
 10
2.714947620219173
 20
3.117248418428261
 30
0.0
 10
2.697900734255997
 20
3.100452293648331
 30
0.0
 10
2.665873087733961
 20
3.072397414301145
 30
0.0
 10
2.630390706804334
 20
3.04881209255279
 30
0.0
 10
2.614168637786083
 20
3.0391863308984
 30
0.0
  0
LINE
  5
C1
330
1F
100
AcDbEntity
  8
0
  6
Continuous
 62
     7
370
    15
100
AcDbLine
 10
2.6141686378
 20
3.0391863309
 30
0.0
 11
2.6141686378
 21
2.6572126021
 31
0.0
  0
LINE
  5
C2
330
1F
100
AcDbEntity
  8
0
  6
Continuous
 62
     7
370
    15
100
AcDbLine
 10
2.5766686378
 20
2.6572126021
 30
0.0
 11
2.6141686378
 21
2.6572126021
 31
0.0
  0
LINE
  5
C3
330
1F
100
AcDbEntity
  8
0
  6
Continuous
 62
     7
370
    15
100
AcDbLine
 10
2.5766686378
 20
3.0187607501
 30
0.0
 11
2.5766686378
 21
2.6572126021
 31
0.0
  0
SPLINE
  5
C4
330
1F
100
AcDbEntity
  8
0
  6
Continuous
 62
     7
370
    15
100
AcDbSpline
210
0.0
220
0.0
230
1.0
 70
     8
 71
     3
 72
     8
 73
     4
 74
     0
 42
0.000000001
 43
0.00000001
 40
0.8851908944157681
 40
0.8851908944157681
 40
0.8851908944157681
 40
0.8851908944157681
 40
0.8928198949143635
 40
0.8928198949143635
 40
0.8928198949143635
 40
0.8928198949143635
 10
2.57666863740056
 20
3.018760750089458
 30
0.0
 10
2.544640305421052
 20
3.002748830130615
 30
0.0
 10
2.510833594808125
 20
2.989225305074736
 30
0.0
 10
2.47588965496595
 20
2.977562136832466
 30
0.0
  0
LINE
  5
C5
330
1F
100
AcDbEntity
  8
0
  6
Continuous
 62
     7
370
    15
100
AcDbLine
 10
2.475889655
 20
2.9775621368
 30
0.0
 11
2.475889655
 21
2.6572126021
 31
0.0
  0
LINE
  5
C6
330
1F
100
AcDbEntity
  8
0
  6
Continuous
 62
     7
370
    15
100
AcDbLine
 10
2.438389655
 20
2.6572126021
 30
0.0
 11
2.475889655
 21
2.6572126021
 31
0.0
  0
LINE
  5
C7
330
1F
100
AcDbEntity
  8
0
  6
Continuous
 62
     7
370
    15
100
AcDbLine
 10
2.438389655
 20
2.9658501829
 30
0.0
 11
2.438389655
 21
2.6572126021
 31
0.0
  0
SPLINE
  5
C8
330
1F
100
AcDbEntity
  8
0
  6
Continuous
 62
     7
370
    15
100
AcDbSpline
210
0.0
220
0.0
230
1.0
 70
     8
 71
     3
 72
     8
 73
     4
 74
     0
 42
0.000000001
 43
0.00000001
 40
0.8955198794683439
 40
0.8955198794683439
 40
0.8955198794683439
 40
0.8955198794683439
 40
0.9025745913471322
 40
0.9025745913471322
 40
0.9025745913471322
 40
0.9025745913471322
 10
2.438389654966929
 20
2.965850182915168
 30
0.0
 10
2.405406091793208
 20
2.956209916943977
 30
0.0
 10
2.371644102891331
 20
2.947970400090128
 30
0.0
 10
2.337610672149167
 20
2.940635016135625
 30
0.0
  0
LINE
  5
C9
330
1F
100
AcDbEntity
  8
0
  6
Continuous
 62
     7
370
    15
100
AcDbLine
 10
2.3376106721
 20
2.9406350161
 30
0.0
 11
2.3376106721
 21
2.6572126021
 31
0.0
  0
LINE
  5
CA
330
1F
100
AcDbEntity
  8
0
  6
Continuous
 62
     7
370
    15
100
AcDbLine
 10
2.3001106721
 20
2.6572126021
 30
0.0
 11
2.3376106721
 21
2.6572126021
 31
0.0
  0
LINE
  5
CB
330
1F
100
AcDbEntity
  8
0
  6
Continuous
 62
     7
370
    15
100
AcDbLine
 10
2.3001106721
 20
2.9329104737
 30
0.0
 11
2.3001106721
 21
2.6572126021
 31
0.0
  0
SPLINE
  5
CC
330
1F
100
AcDbEntity
  8
0
  6
Continuous
 62
     7
370
    15
100
AcDbSpline
210
0.0
220
0.0
230
1.0
 70
     8
 71
     3
 72
    19
 73
    15
 74
     0
 42
0.000000001
 43
0.00000001
 40
0.9051598554828448
 40
0.9051598554828448
 40
0.9051598554828448
 40
0.9051598554828448
 40
0.9116582141634659
 40
0.9351021641014875
 40
0.9553853055888851
 40
0.9744567060631326
 40
0.9850370848394655
 40
1.0
 40
1.0
 40
1.0
 40
1.017117105776114
 40
1.041349377949565
 40
1.056632963431905
 40
1.072368009825419
 40
1.072368009825419
 40
1.072368009825419
 40
1.072368009825419
 10
2.300110672149168
 20
2.932910473718812
 30
0.0
 10
2.268640666931243
 20
2.926702542112043
 30
0.0
 10
2.123302321972651
 20
2.90092170530019
 30
0.0
 10
1.891033904411308
 20
2.865674909184314
 30
0.0
 10
1.609445050077647
 20
2.718976357004242
 30
0.0
 10
1.521191019821132
 20
2.46869565310998
 30
0.0
 10
1.305504315878868
 20
2.403546617712349
 30
0.0
 10
1.266144274888615
 20
2.237063726143664
 30
0.0
 10
1.295612004677042
 20
2.178420570321748
 30
0.0
 10
1.329322163583833
 20
2.111334638838525
 30
0.0
 10
1.576800522884385
 20
2.072189290647806
 30
0.0
 10
1.82753878288277
 20
2.086260174520408
 30
0.0
 10
2.079303182230895
 20
2.197470436956212
 30
0.0
 10
2.225571648487
 20
2.185181501970811
 30
0.0
 10
2.300110671569325
 20
2.170646600015856
 30
0.0
  0
LINE
  5
CD
330
1F
100
AcDbEntity
  8
0
  6
Continuous
 62
     7
370
    15
100
AcDbLine
 10
2.3001106721
 20
2.475672978
 30
0.0
 11
2.3001106721
 21
2.1706466
 31
0.0
  0
LINE
  5
CE
330
1F
100
AcDbEntity
  8
0
  6
Continuous
 62
     7
370
    15
100
AcDbLine
 10
2.3001106721
 20
2.475672978
 30
0.0
 11
2.3376106721
 21
2.475672978
 31
0.0
  0
LINE
  5
CF
330
1F
100
AcDbEntity
  8
0
  6
Continuous
 62
     7
370
    15
100
AcDbLine
 10
2.3376106721
 20
2.475672978
 30
0.0
 11
2.3376106721
 21
2.1626909564
 31
0.0
  0
SPLINE
  5
D0
330
1F
100
AcDbEntity
  8
0
  6
Continuous
 62
     7
370
    15
100
AcDbSpline
210
0.0
220
0.0
230
1.0
 70
     8
 71
     3
 72
     8
 73
     4
 74
     0
 42
0.000000001
 43
0.00000001
 40
0.0750050251635127
 40
0.0750050251635127
 40
0.0750050251635127
 40
0.0750050251635127
 40
0.0820861116857379
 40
0.0820861116857379
 40
0.0820861116857379
 40
0.0820861116857379
 10
2.337610671768672
 20
2.162690956322055
 30
0.0
 10
2.371194351138198
 20
2.155035982366882
 30
0.0
 10
2.404815502264265
 20
2.146070788979388
 30
0.0
 10
2.438389655491481
 20
2.136791297936171
 30
0.0
  0
LINE
  5
D1
330
1F
100
AcDbEntity
  8
0
  6
Continuous
 62
     7
370
    15
100
AcDbLine
 10
2.438389655
 20
2.475672978
 30
0.0
 11
2.438389655
 21
2.1367912979
 31
0.0
  0
LINE
  5
D2
330
1F
100
AcDbEntity
  8
0
  6
Continuous
 62
     7
370
    15
100
AcDbLine
 10
2.438389655
 20
2.475672978
 30
0.0
 11
2.475889655
 21
2.475672978
 31
0.0
  0
LINE
  5
D3
330
1F
100
AcDbEntity
  8
0
  6
Continuous
 62
     7
370
    15
100
AcDbLine
 10
2.475889655
 20
2.475672978
 30
0.0
 11
2.475889655
 21
2.1263407647
 31
0.0
  0
SPLINE
  5
D4
330
1F
100
AcDbEntity
  8
0
  6
Continuous
 62
     7
370
    15
100
AcDbSpline
210
0.0
220
0.0
230
1.0
 70
     8
 71
     3
 72
     9
 73
     5
 74
     0
 42
0.000000001
 43
0.00000001
 40
0.0847241551987176
 40
0.0847241551987176
 40
0.0847241551987176
 40
0.0847241551987176
 40
0.090078977956542
 40
0.0918417186081921
 40
0.0918417186081921
 40
0.0918417186081921
 40
0.0918417186081921
 10
2.475889654207699
 20
2.126340764655354
 30
0.0
 10
2.501243580619942
 20
2.1192509124412
 30
0.0
 10
2.534884058883111
 20
2.109870291296589
 30
0.0
 10
2.568380722757008
 20
2.10130789703108
 30
0.0
 10
2.57666863807765
 20
2.09923401598642
 30
0.0
  0
LINE
  5
D5
330
1F
100
AcDbEntity
  8
0
  6
Continuous
 62
     7
370
    15
100
AcDbLine
 10
2.5766686378
 20
2.475672978
 30
0.0
 11
2.5766686378
 21
2.099234016
 31
0.0
  0
LINE
  5
D6
330
1F
100
AcDbEntity
  8
0
  6
Continuous
 62
     7
370
    15
100
AcDbLine
 10
2.5766686378
 20
2.475672978
 30
0.0
 11
2.6141686378
 21
2.475672978
 31
0.0
  0
LINE
  5
D7
330
1F
100
AcDbEntity
  8
0
  6
Continuous
 62
     7
370
    15
100
AcDbLine
 10
2.6141686378
 20
2.475672978
 30
0.0
 11
2.6141686378
 21
2.0901451116
 31
0.0
  0
SPLINE
  5
D8
330
1F
100
AcDbEntity
  8
0
  6
Continuous
 62
     7
370
    15
100
AcDbSpline
210
0.0
220
0.0
230
1.0
 70
     8
 71
     3
 72
     8
 73
     4
 74
     0
 42
0.000000001
 43
0.00000001
 40
0.0945039206596273
 40
0.0945039206596273
 40
0.0945039206596273
 40
0.0945039206596273
 40
0.1016860182344137
 40
0.1016860182344137
 40
0.1016860182344137
 40
0.1016860182344137
 10
2.614168637314247
 20
2.090145111615295
 30
0.0
 10
2.647848377241638
 20
2.082237359970644
 30
0.0
 10
2.681420415959177
 20
2.07501692102551
 30
0.0
 10
2.714947620602312
 20
2.068247116862635
 30
0.0
  0
LINE
  5
D9
330
1F
100
AcDbEntity
  8
0
  6
Continuous
 62
     7
370
    15
100
AcDbLine
 10
2.7149476206
 20
2.475672978
 30
0.0
 11
2.7149476206
 21
2.0682471169
 31
0.0
  0
LINE
  5
DA
330
1F
100
AcDbEntity
  8
0
  6
Continuous
 62
     7
370
    15
100
AcDbLine
 10
2.7149476206
 20
2.475672978
 30
0.0
 11
2.7524476206
 21
2.475672978
 31
0.0
  0
LINE
  5
DB
330
1F
100
AcDbEntity
  8
0
  6
Continuous
 62
     7
370
    15
100
AcDbLine
 10
2.7524476206
 20
2.475672978
 30
0.0
 11
2.7524476206
 21
2.0608478005
 31
0.0
  0
SPLINE
  5
DC
330
1F
100
AcDbEntity
  8
0
  6
Continuous
 62
     7
370
    15
100
AcDbSpline
210
0.0
220
0.0
230
1.0
 70
     8
 71
     3
 72
    12
 73
     8
 74
     0
 42
0.000000001
 43
0.00000001
 40
0.1043648340616541
 40
0.1043648340616541
 40
0.1043648340616541
 40
0.1043648340616541
 40
0.1153880349857704
 40
0.1590814787479147
 40
0.2908276064835207
 40
0.3213683238119476
 40
0.3343699474351686
 40
0.3343699474351686
 40
0.3343699474351686
 40
0.3343699474351686
 10
2.752447620602317
 20
2.060847800529213
 30
0.0
 10
2.803867814765135
 20
2.05092280283924
 30
0.0
 10
3.058855820924073
 20
2.005894419550144
 30
0.0
 10
3.942656077034694
 20
1.852269240731989
 30
0.0
 10
4.927744401853343
 20
2.003140956390602
 30
0.0
 10
5.763207537790355
 20
2.058613355209709
 30
0.0
 10
5.97103188981798
 20
2.045601156362998
 30
0.0
 10
6.033084608608141
 20
2.040835804842699
 30
0.0
  0
LINE
  5
DD
330
1F
100
AcDbEntity
  8
0
  6
Continuous
 62
     7
370
    15
100
AcDbLine
 10
6.0330846086
 20
2.1879838915
 30
0.0
 11
6.0330846086
 21
2.0408358048
 31
0.0
  0
LINE
  5
DE
330
1F
100
AcDbEntity
  8
0
  6
Continuous
 62
     7
370
    15
100
AcDbLine
 10
6.0330846086
 20
2.1879838915
 30
0.0
 11
6.0705846086
 21
2.1879838915
 31
0.0
  0
LINE
  5
DF
330
1F
100
AcDbEntity
  8
0
  6
Continuous
 62
     7
370
    15
100
AcDbLine
 10
6.0705846086
 20
2.1879838915
 30
0.0
 11
6.0705846086
 21
2.0378611471
 31
0.0
  0
SPLINE
  5
E0
330
1F
100
AcDbEntity
  8
0
  6
Continuous
 62
     7
370
    15
100
AcDbSpline
210
0.0
220
0.0
230
1.0
 70
     8
 71
     3
 72
     8
 73
     4
 74
     0
 42
0.000000001
 43
0.00000001
 40
0.3369890581764111
 40
0.3369890581764111
 40
0.3369890581764111
 40
0.3369890581764111
 40
0.3440528285969148
 40
0.3440528285969148
 40
0.3440528285969148
 40
0.3440528285969148
 10
6.070584608608121
 20
2.03786114705514
 30
0.0
 10
6.104296482871391
 20
2.03511279012857
 30
0.0
 10
6.138005722629695
 20
2.032194412711392
 30
0.0
 10
6.171707660937793
 20
2.02934798039691
 30
0.0
  0
LINE
  5
E1
330
1F
100
AcDbEntity
  8
0
  6
Continuous
 62
     7
370
    15
100
AcDbLine
 10
6.1717076609
 20
2.1879838915
 30
0.0
 11
6.1717076609
 21
2.0293479804
 31
0.0
  0
LINE
  5
E2
330
1F
100
AcDbEntity
  8
0
  6
Continuous
 62
     7
370
    15
100
AcDbLine
 10
6.1717076609
 20
2.1879838915
 30
0.0
 11
6.2092076609
 21
2.1879838915
 31
0.0
  0
LINE
  5
E3
330
1F
100
AcDbEntity
  8
0
  6
Continuous
 62
     7
370
    15
100
AcDbLine
 10
6.2092076609
 20
2.1879838915
 30
0.0
 11
6.2092076609
 21
2.0262225386
 31
0.0
  0
SPLINE
  5
E4
330
1F
100
AcDbEntity
  8
0
  6
Continuous
 62
     7
370
    15
100
AcDbSpline
210
0.0
220
0.0
230
1.0
 70
     8
 71
     3
 72
     8
 73
     4
 74
     0
 42
0.000000001
 43
0.00000001
 40
0.3466729979937656
 40
0.3466729979937656
 40
0.3466729979937656
 40
0.3466729979937656
 40
0.3537414658560253
 40
0.3537414658560253
 40
0.3537414658560253
 40
0.3537414658560253
 10
6.209207660937966
 20
2.026222538593425
 30
0.0
 10
6.242925948382808
 20
2.023460936264503
 30
0.0
 10
6.27663519124673
 20
2.020861246639122
 30
0.0
 10
6.310330713267676
 20
2.018665918356571
 30
0.0
  0
LINE
  5
E5
330
1F
100
AcDbEntity
  8
0
  6
Continuous
 62
     7
370
    15
100
AcDbLine
 10
6.3103307133
 20
2.1879838915
 30
0.0
 11
6.3103307133
 21
2.0186659184
 31
0.0
  0
LINE
  5
E6
330
1F
100
AcDbEntity
  8
0
  6
Continuous
 62
     7
370
    15
100
AcDbLine
 10
6.3103307133
 20
2.1879838915
 30
0.0
 11
6.3478307133
 21
2.1879838915
 31
0.0
  0
LINE
  5
E7
330
1F
100
AcDbEntity
  8
0
  6
Continuous
 62
     7
370
    15
100
AcDbLine
 10
6.3478307133
 20
2.1879838915
 30
0.0
 11
6.3478307133
 21
2.0164017145
 31
0.0
  0
SPLINE
  5
E8
330
1F
100
AcDbEntity
  8
0
  6
Continuous
 62
     7
370
    15
100
AcDbSpline
210
0.0
220
0.0
230
1.0
 70
     8
 71
     3
 72
     8
 73
     4
 74
     0
 42
0.000000001
 43
0.00000001
 40
0.3563640624766095
 40
0.3563640624766095
 40
0.3563640624766095
 40
0.3563640624766095
 40
0.3634409333418988
 40
0.3634409333418988
 40
0.3634409333418988
 40
0.3634409333418988
 10
6.347830713267802
 20
2.016401714541218
 30
0.0
 10
6.381555454332498
 20
2.014537607106029
 30
0.0
 10
6.415264702762219
 20
2.013168992135479
 30
0.0
 10
6.448953765597635
 20
2.01253918396688
 30
0.0
  0
LINE
  5
E9
330
1F
100
AcDbEntity
  8
0
  6
Continuous
 62
     7
370
    15
100
AcDbLine
 10
6.4489537656
 20
2.1879838915
 30
0.0
 11
6.4489537656
 21
2.012539184
 31
0.0
  0
LINE
  5
EA
330
1F
100
AcDbEntity
  8
0
  6
Continuous
 62
     7
370
    15
100
AcDbLine
 10
6.4489537656
 20
2.1879838915
 30
0.0
 11
6.4864537656
 21
2.1879838915
 31
0.0
  0
LINE
  5
EB
330
1F
100
AcDbEntity
  8
0
  6
Continuous
 62
     7
370
    15
100
AcDbLine
 10
6.4864537656
 20
2.1879838915
 30
0.0
 11
6.4864537656
 21
2.0121556846
 31
0.0
  0
SPLINE
  5
EC
330
1F
100
AcDbEntity
  8
0
  6
Continuous
 62
     7
370
    15
100
AcDbSpline
210
0.0
220
0.0
230
1.0
 70
     8
 71
     3
 72
     9
 73
     5
 74
     0
 42
0.000000001
 43
0.00000001
 40
0.3660673384615452
 40
0.3660673384615452
 40
0.3660673384615452
 40
0.3660673384615452
 40
0.3729238533640195
 40
0.3731563621622267
 40
0.3731563621622267
 40
0.3731563621622267
 40
0.3731563621622267
 10
6.486453765597632
 20
2.012155684560674
 30
0.0
 10
6.519078693240067
 20
2.01210926065364
 30
0.0
 10
6.55278867201767
 20
2.012865932522729
 30
0.0
 10
6.586472085689159
 20
2.014691109790913
 30
0.0
 10
6.587576818241097
 20
2.014752120865441
 30
0.0
  0
LINE
  5
ED
330
1F
100
AcDbEntity
  8
0
  6
Continuous
 62
     7
370
    15
100
AcDbLine
 10
6.5875768179
 20
2.1879838915
 30
0.0
 11
6.5875768179
 21
2.0147521209
 31
0.0
  0
LINE
  5
EE
330
1F
100
AcDbEntity
  8
0
  6
Continuous
 62
     7
370
    15
100
AcDbLine
 10
6.5875768179
 20
2.1879838915
 30
0.0
 11
6.6250768179
 21
2.1879838915
 31
0.0
  0
LINE
  5
EF
330
1F
100
AcDbEntity
  8
0
  6
Continuous
 62
     7
370
    15
100
AcDbLine
 10
6.6250768179
 20
2.1879838915
 30
0.0
 11
6.6250768179
 21
2.0172633561
 31
0.0
  0
SPLINE
  5
F0
330
1F
100
AcDbEntity
  8
0
  6
Continuous
 62
     7
370
    15
100
AcDbSpline
210
0.0
220
0.0
230
1.0
 70
     8
 71
     3
 72
     8
 73
     4
 74
     0
 42
0.000000001
 43
0.00000001
 40
0.375788181125171
 40
0.375788181125171
 40
0.375788181125171
 40
0.375788181125171
 40
0.3829016113267887
 40
0.3829016113267887
 40
0.3829016113267887
 40
0.3829016113267887
 10
6.625076817927555
 20
2.017263356145758
 30
0.0
 10
6.658847537819631
 20
2.01992008705737
 30
0.0
 10
6.692571656507038
 20
2.023637796315304
 30
0.0
 10
6.726199870288014
 20
2.028379487530887
 30
0.0
  0
LINE
  5
F1
330
1F
100
AcDbEntity
  8
0
  6
Continuous
 62
     7
370
    15
100
AcDbLine
 10
6.7261998703
 20
2.1879838915
 30
0.0
 11
6.7261998703
 21
2.0283794875
 31
0.0
  0
LINE
  5
F2
330
1F
100
AcDbEntity
  8
0
  6
Continuous
 62
     7
370
    15
100
AcDbLine
 10
6.7261998703
 20
2.1879838915
 30
0.0
 11
6.7636998703
 21
2.1879838915
 31
0.0
  0
LINE
  5
F3
330
1F
100
AcDbEntity
  8
0
  6
Continuous
 62
     7
370
    15
100
AcDbLine
 10
6.7636998703
 20
2.1879838915
 30
0.0
 11
6.7636998703
 21
2.0340965928
 31
0.0
  0
SPLINE
  5
F4
330
1F
100
AcDbEntity
  8
0
  6
Continuous
 62
     7
370
    15
100
AcDbSpline
210
0.0
220
0.0
230
1.0
 70
     8
 71
     3
 72
     8
 73
     4
 74
     0
 42
0.000000001
 43
0.00000001
 40
0.3855487449822055
 40
0.3855487449822055
 40
0.3855487449822055
 40
0.3855487449822055
 40
0.3927238284855877
 40
0.3927238284855877
 40
0.3927238284855877
 40
0.3927238284855877
 10
6.763699870329948
 20
2.034096592842324
 30
0.0
 10
6.797540661484473
 20
2.039642931231589
 30
0.0
 10
6.831265211184769
 20
2.046217071330848
 30
0.0
 10
6.864822922615375
 20
2.053781046427993
 30
0.0
  0
LINE
  5
F5
330
1F
100
AcDbEntity
  8
0
  6
Continuous
 62
     7
370
    15
100
AcDbLine
 10
6.8648229226
 20
2.1879838915
 30
0.0
 11
6.8648229226
 21
2.0537810464
 31
0.0
  0
LINE
  5
F6
330
1F
100
AcDbEntity
  8
0
  6
Continuous
 62
     7
370
    15
100
AcDbLine
 10
6.8648229226
 20
2.1879838915
 30
0.0
 11
6.9023229226
 21
2.1879838915
 31
0.0
  0
LINE
  5
F7
330
1F
100
AcDbEntity
  8
0
  6
Continuous
 62
     7
370
    15
100
AcDbLine
 10
6.9023229226
 20
2.1879838915
 30
0.0
 11
6.9023229226
 21
2.0626615667
 31
0.0
  0
SPLINE
  5
F8
330
1F
100
AcDbEntity
  8
0
  6
Continuous
 62
     7
370
    15
100
AcDbSpline
210
0.0
220
0.0
230
1.0
 70
     8
 71
     3
 72
     8
 73
     4
 74
     0
 42
0.000000001
 43
0.00000001
 40
0.3954016503020877
 40
0.3954016503020877
 40
0.3954016503020877
 40
0.3954016503020877
 40
0.4026819966725557
 40
0.4026819966725557
 40
0.4026819966725557
 40
0.4026819966725557
 10
6.902322922758275
 20
2.062661566727676
 30
0.0
 10
6.936239436713296
 20
2.071080818390739
 30
0.0
 10
6.969964739827845
 20
2.080504572654491
 30
0.0
 10
7.003445975598555
 20
2.090893167187852
 30
0.0
  0
LINE
  5
F9
330
1F
100
AcDbEntity
  8
0
  6
Continuous
 62
     7
370
    15
100
AcDbLine
 10
7.0034459749
 20
2.1879838915
 30
0.0
 11
7.0034459756
 21
2.0908931672
 31
0.0
  0
LINE
  5
FA
330
1F
100
AcDbEntity
  8
0
  6
Continuous
 62
     7
370
    15
100
AcDbLine
 10
7.0034459749
 20
2.1879838915
 30
0.0
 11
7.0409459749
 21
2.1879838915
 31
0.0
  0
LINE
  5
FB
330
1F
100
AcDbEntity
  8
0
  6
Continuous
 62
     7
370
    15
100
AcDbLine
 10
7.0409459749
 20
2.1879838915
 30
0.0
 11
7.0409459749
 21
2.1029696824
 31
0.0
  0
SPLINE
  5
FC
330
1F
100
AcDbEntity
  8
0
  6
Continuous
 62
     7
370
    15
100
AcDbSpline
210
0.0
220
0.0
230
1.0
 70
     8
 71
     3
 72
    12
 73
     8
 74
     0
 42
0.000000001
 43
0.00000001
 40
0.4054079017718569
 40
0.4054079017718569
 40
0.4054079017718569
 40
0.4054079017718569
 40
0.4281353145167229
 40
0.442421195254353
 40
0.4509026691996807
 40
0.4640082356303102
 40
0.4774218923768066
 40
0.4774218923768066
 40
0.4774218923768066
 40
0.4774218923768066
 10
7.04094597492074
 20
2.102969682442849
 30
0.0
 10
7.144829919624094
 20
2.13769736294056
 30
0.0
 10
7.308734270064443
 20
2.210848779542625
 30
0.0
 10
7.459881180512273
 20
2.37805642205937
 30
0.0
 10
7.421980375115226
 20
2.609160347459237
 30
0.0
 10
7.23521851975894
 20
2.447668096729102
 30
0.0
 10
7.105146285465886
 20
2.409724562161039
 30
0.0
 10
7.040945975637951
 20
2.404191560435009
 30
0.0
  0
LINE
  5
FD
330
1F
100
AcDbEntity
  8
0
  6
Continuous
 62
     7
370
    15
100
AcDbLine
 10
7.0409459749
 20
2.3129838915
 30
0.0
 11
7.0409459756
 21
2.4041915604
 31
0.0
  0
LINE
  5
FE
330
1F
100
AcDbEntity
  8
0
  6
Continuous
 62
     7
370
    15
100
AcDbLine
 10
7.0034459749
 20
2.3129838915
 30
0.0
 11
7.0409459749
 21
2.3129838915
 31
0.0
  0
LINE
  5
FF
330
1F
100
AcDbEntity
  8
0
  6
Continuous
 62
     7
370
    15
100
AcDbLine
 10
7.0034459749
 20
2.3129838915
 30
0.0
 11
7.0034459749
 21
2.4024531657
 31
0.0
  0
SPLINE
  5
100
330
1F
100
AcDbEntity
  8
0
  6
Continuous
 62
     7
370
    15
100
AcDbSpline
210
0.0
220
0.0
230
1.0
 70
     8
 71
     3
 72
     8
 73
     4
 74
     0
 42
0.000000001
 43
0.00000001
 40
0.4800455988849707
 40
0.4800455988849707
 40
0.4800455988849707
 40
0.4800455988849707
 40
0.4872174113140426
 40
0.4872174113140426
 40
0.4872174113140426
 40
0.4872174113140426
 10
7.003445975647221
 20
2.402453165707646
 30
0.0
 10
6.969425889914469
 20
2.402189447273422
 30
0.0
 10
6.935786152453462
 20
2.405386580266564
 30
0.0
 10
6.902322923275637
 20
2.41083131526429
 30
0.0
  0
LINE
  5
101
330
1F
100
AcDbEntity
  8
0
  6
Continuous
 62
     7
370
    15
100
AcDbLine
 10
6.9023229226
 20
2.3129838915
 30
0.0
 11
6.9023229233
 21
2.4108313153
 31
0.0
  0
LINE
  5
102
330
1F
100
AcDbEntity
  8
0
  6
Continuous
 62
     7
370
    15
100
AcDbLine
 10
5.9580846086
 20
2.3754838915
 30
0.0
 11
5.9580846086
 21
2.1254838915
 31
0.0
  0
LINE
  5
103
330
1F
100
AcDbEntity
  8
0
  6
Continuous
 62
     7
370
    15
100
AcDbLine
 10
5.9580846086
 20
2.3754838915
 30
0.0
 11
5.9955846086
 21
2.3754838915
 31
0.0
  0
LINE
  5
104
330
1F
100
AcDbEntity
  8
0
  6
Continuous
 62
     7
370
    15
100
AcDbLine
 10
5.9955846086
 20
2.3754838915
 30
0.0
 11
5.9955846086
 21
2.1254838915
 31
0.0
  0
LINE
  5
105
330
1F
100
AcDbEntity
  8
0
  6
Continuous
 62
     7
370
    15
100
AcDbLine
 10
5.9580846086
 20
2.1254838915
 30
0.0
 11
5.9955846086
 21
2.1254838915
 31
0.0
  0
LINE
  5
106
330
1F
100
AcDbEntity
  8
0
  6
Continuous
 62
     7
370
    15
100
AcDbLine
 10
5.3199199594
 20
2.9298603232
 30
0.0
 11
5.3199199594
 21
3.1798603232
 31
0.0
  0
LINE
  5
107
330
1F
100
AcDbEntity
  8
0
  6
Continuous
 62
     7
370
    15
100
AcDbLine
 10
5.3199199594
 20
2.9298603232
 30
0.0
 11
5.1949199594
 21
2.9298603232
 31
0.0
  0
LINE
  5
108
330
1F
100
AcDbEntity
  8
0
  6
Continuous
 62
     7
370
    15
100
AcDbLine
 10
5.1949199594
 20
2.9298603232
 30
0.0
 11
5.1949199594
 21
3.1798603232
 31
0.0
  0
LINE
  5
109
330
1F
100
AcDbEntity
  8
0
  6
Continuous
 62
     7
370
    15
100
AcDbLine
 10
5.3199199594
 20
3.1798603232
 30
0.0
 11
5.1949199594
 21
3.1798603232
 31
0.0
  0
LINE
  5
10A
330
1F
100
AcDbEntity
  8
0
  6
Continuous
 62
     7
370
    15
100
AcDbLine
 10
5.1949199594
 20
3.5512888946
 30
0.0
 11
5.3199199594
 21
3.5512888946
 31
0.0
  0
LINE
  5
10B
330
1F
100
AcDbEntity
  8
0
  6
Continuous
 62
     7
370
    15
100
AcDbLine
 10
5.1949199594
 20
3.5512888946
 30
0.0
 11
5.1949199594
 21
3.8012888946
 31
0.0
  0
LINE
  5
10C
330
1F
100
AcDbEntity
  8
0
  6
Continuous
 62
     7
370
    15
100
AcDbLine
 10
5.3199199594
 20
3.8012888946
 30
0.0
 11
5.1949199594
 21
3.8012888946
 31
0.0
  0
LINE
  5
10D
330
1F
100
AcDbEntity
  8
0
  6
Continuous
 62
     7
370
    15
100
AcDbLine
 10
5.3199199594
 20
3.5512888946
 30
0.0
 11
5.3199199594
 21
3.8012888946
 31
0.0
  0
LINE
  5
10E
330
1F
100
AcDbEntity
  8
0
  6
Continuous
 62
     7
370
    15
100
AcDbLine
 10
3.307905802
 20
2.4835215994
 30
0.0
 11
3.307905802
 21
2.8585215994
 31
0.0
  0
LINE
  5
10F
330
1F
100
AcDbEntity
  8
0
  6
Continuous
 62
     7
370
    15
100
AcDbLine
 10
3.307905802
 20
2.4835215994
 30
0.0
 11
3.182905802
 21
2.4835215994
 31
0.0
  0
LINE
  5
110
330
1F
100
AcDbEntity
  8
0
  6
Continuous
 62
     7
370
    15
100
AcDbLine
 10
3.182905802
 20
2.4835215994
 30
0.0
 11
3.182905802
 21
2.8585215994
 31
0.0
  0
LINE
  5
111
330
1F
100
AcDbEntity
  8
0
  6
Continuous
 62
     7
370
    15
100
AcDbLine
 10
3.307905802
 20
2.8585215994
 30
0.0
 11
3.182905802
 21
2.8585215994
 31
0.0
  0
LINE
  5
112
330
1F
100
AcDbEntity
  8
0
  6
Continuous
 62
     7
370
    15
100
AcDbLine
 10
3.182905802
 20
3.2638246297
 30
0.0
 11
3.307905802
 21
3.2638246297
 31
0.0
  0
LINE
  5
113
330
1F
100
AcDbEntity
  8
0
  6
Continuous
 62
     7
370
    15
100
AcDbLine
 10
3.182905802
 20
3.2638246297
 30
0.0
 11
3.182905802
 21
3.6388246297
 31
0.0
  0
LINE
  5
114
330
1F
100
AcDbEntity
  8
0
  6
Continuous
 62
     7
370
    15
100
AcDbLine
 10
3.307905802
 20
3.6388246297
 30
0.0
 11
3.182905802
 21
3.6388246297
 31
0.0
  0
LINE
  5
115
330
1F
100
AcDbEntity
  8
0
  6
Continuous
 62
     7
370
    15
100
AcDbLine
 10
3.307905802
 20
3.2638246297
 30
0.0
 11
3.307905802
 21
3.6388246297
 31
0.0
  0
ENDSEC
  0
SECTION
  2
OBJECTS
  0
DICTIONARY
  5
C
330
0
100
AcDbDictionary
281
     1
  3
ACAD_GROUP
350
D
  3
ACAD_LAYOUT
350
1A
  3
ACAD_MLINESTYLE
350
17
  3
ACAD_PLOTSETTINGS
350
19
  3
ACAD_PLOTSTYLENAME
350
E
  3
ACAD_SCALELIST
350
47
  0
DICTIONARY
  5
D
102
{ACAD_REACTORS
330
C
102
}
330
C
100
AcDbDictionary
281
     1
  0
DICTIONARY
  5
1A
102
{ACAD_REACTORS
330
C
102
}
330
C
100
AcDbDictionary
281
     1
  3
Layout1
350
1E
  3
Layout2
350
26
  3
Model
350
22
  0
DICTIONARY
  5
17
102
{ACAD_REACTORS
330
C
102
}
330
C
100
AcDbDictionary
281
     1
  3
Standard
350
18
  0
DICTIONARY
  5
19
102
{ACAD_REACTORS
330
C
102
}
330
C
100
AcDbDictionary
281
     1
  0
ACDBDICTIONARYWDFLT
  5
E
102
{ACAD_REACTORS
330
C
102
}
330
C
100
AcDbDictionary
281
     1
  3
Normal
350
F
100
AcDbDictionaryWithDefault
340
F
  0
DICTIONARY
  5
47
102
{ACAD_REACTORS
330
C
102
}
330
C
100
AcDbDictionary
281
     1
  3
A0
350
48
  3
A1
350
49
  3
A2
350
4A
  3
A3
350
4B
  3
A4
350
4C
  3
A5
350
4D
  3
A6
350
4E
  3
A7
350
4F
  3
A8
350
50
  3
A9
350
51
  3
B0
350
52
  3
B1
350
53
  3
B2
350
54
  3
B3
350
55
  3
B4
350
56
  3
B5
350
57
  3
B6
350
58
  3
B7
350
59
  3
B8
350
5A
  3
B9
350
5B
  3
C0
350
5C
  3
C1
350
5D
  3
C2
350
5E
  3
C3
350
5F
  3
C4
350
60
  3
C5
350
61
  3
C6
350
62
  3
C7
350
63
  3
C8
350
64
  3
C9
350
65
  3
D0
350
66
  3
D1
350
67
  3
D2
350
68
  0
LAYOUT
  5
1E
102
{ACAD_REACTORS
330
1A
102
}
330
1A
100
AcDbPlotSettings
  1

  2
none_device
  4

  6

 40
0.0
 41
0.0
 42
0.0
 43
0.0
 44
0.0
 45
0.0
 46
0.0
 47
0.0
 48
0.0
 49
0.0
140
0.0
141
0.0
142
1.0
143
1.0
 70
   688
 72
     0
 73
     0
 74
     5
  7

 75
    16
147
1.0
148
0.0
149
0.0
100
AcDbLayout
  1
Layout1
 70
     1
 71
     1
 10
0.0
 20
0.0
 11
12.0
 21
9.0
 12
0.0
 22
0.0
 32
0.0
 14
1.0000000000E+20
 24
1.0000000000E+20
 34
1.0000000000E+20
 15
-1.0000000000E+20
 25
-1.0000000000E+20
 35
-1.0000000000E+20
146
0.0
 13
0.0
 23
0.0
 33
0.0
 16
1.0
 26
0.0
 36
0.0
 17
0.0
 27
1.0
 37
0.0
 76
     0
330
1B
  0
LAYOUT
  5
26
102
{ACAD_REACTORS
330
1A
102
}
330
1A
100
AcDbPlotSettings
  1

  2
none_device
  4

  6

 40
0.0
 41
0.0
 42
0.0
 43
0.0
 44
0.0
 45
0.0
 46
0.0
 47
0.0
 48
0.0
 49
0.0
140
0.0
141
0.0
142
1.0
143
1.0
 70
   688
 72
     0
 73
     0
 74
     5
  7

 75
    16
147
1.0
148
0.0
149
0.0
100
AcDbLayout
  1
Layout2
 70
     1
 71
     2
 10
0.0
 20
0.0
 11
0.0
 21
0.0
 12
0.0
 22
0.0
 32
0.0
 14
0.0
 24
0.0
 34
0.0
 15
0.0
 25
0.0
 35
0.0
146
0.0
 13
0.0
 23
0.0
 33
0.0
 16
1.0
 26
0.0
 36
0.0
 17
0.0
 27
1.0
 37
0.0
 76
     0
330
23
  0
LAYOUT
  5
22
102
{ACAD_REACTORS
330
1A
102
}
330
1A
100
AcDbPlotSettings
  1

  2
none_device
  4
ANSI_A_(11.00_x_8.50_Inches)
  6

 40
6.35
 41
19.05
 42
6.35000508
 43
19.05000254
 44
279.4
 45
215.9
 46
-62.5629307874
 47
-52.4873969325
 48
0.0
 49
0.0
140
0.0
141
0.0
142
1.7682861789
143
1.0
 70
  1696
 72
     0
 73
     0
 74
     0
  7

 75
     0
147
0.5913241897
148
-39.4088153714
149
0.0
100
AcDbLayout
  1
Model
 70
     1
 71
     0
 10
0.0
 20
0.0
 11
12.0
 21
9.0
 12
0.0
 22
0.0
 32
0.0
 14
1.2826585642
 24
1.9242209016
 34
0.0
 15
7.4411639745
 25
4.3716298112
 35
0.0
146
0.0
 13
0.0
 23
0.0
 33
0.0
 16
1.0
 26
0.0
 36
0.0
 17
0.0
 27
1.0
 37
0.0
 76
     0
330
1F
331
29
  0
MLINESTYLE
  5
18
102
{ACAD_REACTORS
330
17
102
}
330
17
100
AcDbMlineStyle
  2
Standard
 70
     0
  3

 62
   256
 51
90.0
 52
90.0
 71
     2
 49
0.5
 62
   256
  6
BYLAYER
 49
-0.5
 62
   256
  6
BYLAYER
  0
ACDBPLACEHOLDER
  5
F
102
{ACAD_REACTORS
330
E
102
}
330
E
  0
SCALE
  5
48
102
{ACAD_REACTORS
330
47
102
}
330
47
100
AcDbScale
 70
     0
300
1:1
140
1.0
141
1.0
290
     1
  0
SCALE
  5
49
102
{ACAD_REACTORS
330
47
102
}
330
47
100
AcDbScale
 70
     0
300
1:2
140
1.0
141
2.0
290
     0
  0
SCALE
  5
4A
102
{ACAD_REACTORS
330
47
102
}
330
47
100
AcDbScale
 70
     0
300
1:4
140
1.0
141
4.0
290
     0
  0
SCALE
  5
4B
102
{ACAD_REACTORS
330
47
102
}
330
47
100
AcDbScale
 70
     0
300
1:5
140
1.0
141
5.0
290
     0
  0
SCALE
  5
4C
102
{ACAD_REACTORS
330
47
102
}
330
47
100
AcDbScale
 70
     0
300
1:8
140
1.0
141
8.0
290
     0
  0
SCALE
  5
4D
102
{ACAD_REACTORS
330
47
102
}
330
47
100
AcDbScale
 70
     0
300
1:10
140
1.0
141
10.0
290
     0
  0
SCALE
  5
4E
102
{ACAD_REACTORS
330
47
102
}
330
47
100
AcDbScale
 70
     0
300
1:16
140
1.0
141
16.0
290
     0
  0
SCALE
  5
4F
102
{ACAD_REACTORS
330
47
102
}
330
47
100
AcDbScale
 70
     0
300
1:20
140
1.0
141
20.0
290
     0
  0
SCALE
  5
50
102
{ACAD_REACTORS
330
47
102
}
330
47
100
AcDbScale
 70
     0
300
1:30
140
1.0
141
30.0
290
     0
  0
SCALE
  5
51
102
{ACAD_REACTORS
330
47
102
}
330
47
100
AcDbScale
 70
     0
300
1:40
140
1.0
141
40.0
290
     0
  0
SCALE
  5
52
102
{ACAD_REACTORS
330
47
102
}
330
47
100
AcDbScale
 70
     0
300
1:50
140
1.0
141
50.0
290
     0
  0
SCALE
  5
53
102
{ACAD_REACTORS
330
47
102
}
330
47
100
AcDbScale
 70
     0
300
1:100
140
1.0
141
100.0
290
     0
  0
SCALE
  5
54
102
{ACAD_REACTORS
330
47
102
}
330
47
100
AcDbScale
 70
     0
300
2:1
140
2.0
141
1.0
290
     0
  0
SCALE
  5
55
102
{ACAD_REACTORS
330
47
102
}
330
47
100
AcDbScale
 70
     0
300
4:1
140
4.0
141
1.0
290
     0
  0
SCALE
  5
56
102
{ACAD_REACTORS
330
47
102
}
330
47
100
AcDbScale
 70
     0
300
8:1
140
8.0
141
1.0
290
     0
  0
SCALE
  5
57
102
{ACAD_REACTORS
330
47
102
}
330
47
100
AcDbScale
 70
     0
300
10:1
140
10.0
141
1.0
290
     0
  0
SCALE
  5
58
102
{ACAD_REACTORS
330
47
102
}
330
47
100
AcDbScale
 70
     0
300
100:1
140
100.0
141
1.0
290
     0
  0
SCALE
  5
59
102
{ACAD_REACTORS
330
47
102
}
330
47
100
AcDbScale
 70
     0
300
1/128" = 1'-0"
140
0.0078125
141
12.0
290
     0
  0
SCALE
  5
5A
102
{ACAD_REACTORS
330
47
102
}
330
47
100
AcDbScale
 70
     0
300
1/64" = 1'-0"
140
0.015625
141
12.0
290
     0
  0
SCALE
  5
5B
102
{ACAD_REACTORS
330
47
102
}
330
47
100
AcDbScale
 70
     0
300
1/32" = 1'-0"
140
0.03125
141
12.0
290
     0
  0
SCALE
  5
5C
102
{ACAD_REACTORS
330
47
102
}
330
47
100
AcDbScale
 70
     0
300
1/16" = 1'-0"
140
0.0625
141
12.0
290
     0
  0
SCALE
  5
5D
102
{ACAD_REACTORS
330
47
102
}
330
47
100
AcDbScale
 70
     0
300
3/32" = 1'-0"
140
0.09375
141
12.0
290
     0
  0
SCALE
  5
5E
102
{ACAD_REACTORS
330
47
102
}
330
47
100
AcDbScale
 70
     0
300
1/8" = 1'-0"
140
0.125
141
12.0
290
     0
  0
SCALE
  5
5F
102
{ACAD_REACTORS
330
47
102
}
330
47
100
AcDbScale
 70
     0
300
3/16" = 1'-0"
140
0.1875
141
12.0
290
     0
  0
SCALE
  5
60
102
{ACAD_REACTORS
330
47
102
}
330
47
100
AcDbScale
 70
     0
300
1/4" = 1'-0"
140
0.25
141
12.0
290
     0
  0
SCALE
  5
61
102
{ACAD_REACTORS
330
47
102
}
330
47
100
AcDbScale
 70
     0
300
3/8" = 1'-0"
140
0.375
141
12.0
290
     0
  0
SCALE
  5
62
102
{ACAD_REACTORS
330
47
102
}
330
47
100
AcDbScale
 70
     0
300
1/2" = 1'-0"
140
0.5
141
12.0
290
     0
  0
SCALE
  5
63
102
{ACAD_REACTORS
330
47
102
}
330
47
100
AcDbScale
 70
     0
300
3/4" = 1'-0"
140
0.75
141
12.0
290
     0
  0
SCALE
  5
64
102
{ACAD_REACTORS
330
47
102
}
330
47
100
AcDbScale
 70
     0
300
1" = 1'-0"
140
1.0
141
12.0
290
     0
  0
SCALE
  5
65
102
{ACAD_REACTORS
330
47
102
}
330
47
100
AcDbScale
 70
     0
300
1-1/2" = 1'-0"
140
1.5
141
12.0
290
     0
  0
SCALE
  5
66
102
{ACAD_REACTORS
330
47
102
}
330
47
100
AcDbScale
 70
     0
300
3" = 1'-0"
140
3.0
141
12.0
290
     0
  0
SCALE
  5
67
102
{ACAD_REACTORS
330
47
102
}
330
47
100
AcDbScale
 70
     0
300
6" = 1'-0"
140
6.0
141
12.0
290
     0
  0
SCALE
  5
68
102
{ACAD_REACTORS
330
47
102
}
330
47
100
AcDbScale
 70
     0
300
1'-0" = 1'-0"
140
12.0
141
12.0
290
     0
  0
ENDSEC
  0
EOF
